<mxfile host="app.diagrams.net" agent="Mozilla/5.0 (Windows NT 10.0; Win64; x64) AppleWebKit/537.36 (KHTML, like Gecko) Chrome/132.0.0.0 Safari/537.36" version="24.7.8">
  <diagram name="第 1 页" id="iGHmIZ3LZTDbb6ntpi60">
    <mxGraphModel dx="1877" dy="652" grid="1" gridSize="10" guides="1" tooltips="1" connect="1" arrows="1" fold="1" page="1" pageScale="1" pageWidth="827" pageHeight="1169" math="0" shadow="0">
      <root>
        <mxCell id="0" />
        <mxCell id="1" parent="0" />
        <mxCell id="Ziax8fxTvrLB9GdavN1S-3" style="edgeStyle=orthogonalEdgeStyle;rounded=0;orthogonalLoop=1;jettySize=auto;html=1;entryX=0;entryY=0.5;entryDx=0;entryDy=0;curved=1;" edge="1" parent="1" source="Ziax8fxTvrLB9GdavN1S-1" target="Ziax8fxTvrLB9GdavN1S-2">
          <mxGeometry relative="1" as="geometry" />
        </mxCell>
        <mxCell id="Ziax8fxTvrLB9GdavN1S-5" style="edgeStyle=orthogonalEdgeStyle;rounded=0;orthogonalLoop=1;jettySize=auto;html=1;entryX=0;entryY=0.5;entryDx=0;entryDy=0;curved=1;" edge="1" parent="1" source="Ziax8fxTvrLB9GdavN1S-1" target="Ziax8fxTvrLB9GdavN1S-4">
          <mxGeometry relative="1" as="geometry" />
        </mxCell>
        <mxCell id="Ziax8fxTvrLB9GdavN1S-7" style="edgeStyle=orthogonalEdgeStyle;rounded=0;orthogonalLoop=1;jettySize=auto;html=1;entryX=0;entryY=0.5;entryDx=0;entryDy=0;curved=1;" edge="1" parent="1" source="Ziax8fxTvrLB9GdavN1S-1" target="Ziax8fxTvrLB9GdavN1S-6">
          <mxGeometry relative="1" as="geometry" />
        </mxCell>
        <mxCell id="Ziax8fxTvrLB9GdavN1S-9" style="edgeStyle=orthogonalEdgeStyle;rounded=0;orthogonalLoop=1;jettySize=auto;html=1;entryX=0;entryY=0.5;entryDx=0;entryDy=0;curved=1;" edge="1" parent="1" source="Ziax8fxTvrLB9GdavN1S-1" target="Ziax8fxTvrLB9GdavN1S-8">
          <mxGeometry relative="1" as="geometry" />
        </mxCell>
        <mxCell id="Ziax8fxTvrLB9GdavN1S-1" value="ads_fin_atl_btl_cf_rpt_df" style="rounded=1;whiteSpace=wrap;html=1;" vertex="1" parent="1">
          <mxGeometry x="-20" y="110" width="220" height="60" as="geometry" />
        </mxCell>
        <mxCell id="Ziax8fxTvrLB9GdavN1S-2" value="dws_fin_atl_btl_rgon_shr_rslt_di" style="rounded=1;html=1;whiteSpace=wrap;" vertex="1" parent="1">
          <mxGeometry x="414" y="120" width="190" height="60" as="geometry" />
        </mxCell>
        <mxCell id="Ziax8fxTvrLB9GdavN1S-4" value="dws_fin_atl_btl_pft_cntr_shr_rslt_di" style="rounded=1;html=1;whiteSpace=wrap;" vertex="1" parent="1">
          <mxGeometry x="414" y="20" width="190" height="60" as="geometry" />
        </mxCell>
        <mxCell id="Ziax8fxTvrLB9GdavN1S-6" value="dws_fin_atl_btl_hq_shr_rslt_di" style="rounded=1;whiteSpace=wrap;html=1;" vertex="1" parent="1">
          <mxGeometry x="414" y="220" width="190" height="60" as="geometry" />
        </mxCell>
        <mxCell id="Ziax8fxTvrLB9GdavN1S-8" value="dws_fin_atl_btl_adj_shr_rslt_di" style="rounded=1;whiteSpace=wrap;html=1;" vertex="1" parent="1">
          <mxGeometry x="414" y="320" width="186" height="60" as="geometry" />
        </mxCell>
      </root>
    </mxGraphModel>
  </diagram>
</mxfile>
